<svg width="32" height="32" viewBox="0 0 32 32" fill="none" xmlns="http://www.w3.org/2000/svg">
<g clip-path="url(#clip0_116_109)">
<path fill-rule="evenodd" clip-rule="evenodd" d="M16.3335 0.334852C7.4967 0.334852 0.333499 7.49796 0.333499 16.3346C0.332142 18.692 0.851729 21.0206 1.8551 23.1538L0.367099 30.4129C0.314121 30.672 0.326238 30.9403 0.402365 31.1937C0.478492 31.447 0.616254 31.6776 0.803318 31.8646C0.990382 32.0517 1.22091 32.1894 1.47427 32.2656C1.72763 32.3417 1.99591 32.3538 2.2551 32.3008L9.5143 30.8129C11.5847 31.7888 13.8983 32.3328 16.3335 32.3328C25.1703 32.3328 32.3335 25.1713 32.3335 16.333C32.3335 7.49796 25.1703 0.333252 16.3335 0.333252" fill="#A91E12"/>
</g>
<defs>
<clipPath id="clip0_116_109">
<rect width="32" height="32" fill="white"/>
</clipPath>
</defs>
</svg>
