<svg width="30" height="30" viewBox="0 0 30 30" fill="none" xmlns="http://www.w3.org/2000/svg">
<path d="M14.0861 5.51394C14.3755 4.86471 14.5203 4.5401 14.7218 4.44014C14.8968 4.35329 15.1023 4.35329 15.2773 4.44014C15.4788 4.5401 15.6235 4.86471 15.9129 5.51394L18.2179 10.6851C18.3035 10.877 18.3463 10.973 18.4125 11.0465C18.471 11.1115 18.5426 11.1635 18.6225 11.1991C18.7129 11.2394 18.8174 11.2504 19.0264 11.2724L24.6568 11.8667C25.3636 11.9413 25.717 11.9786 25.8744 12.1393C26.011 12.2789 26.0745 12.4745 26.046 12.6678C26.0133 12.8903 25.7493 13.1281 25.2213 13.604L21.0154 17.3942C20.8594 17.5349 20.7813 17.6053 20.7319 17.6909C20.6881 17.7668 20.6608 17.8509 20.6516 17.9379C20.6413 18.0362 20.663 18.139 20.7066 18.3446L21.8814 23.883C22.0289 24.5784 22.1026 24.926 21.9984 25.1253C21.9078 25.2985 21.7415 25.4192 21.5489 25.4519C21.3271 25.4894 21.0193 25.3119 20.4035 24.9568L15.4991 22.128C15.3171 22.023 15.2261 21.9706 15.1294 21.95C15.0438 21.9319 14.9553 21.9319 14.8696 21.95C14.7729 21.9706 14.6819 22.023 14.4999 22.128L9.59553 24.9568C8.97981 25.3119 8.67194 25.4894 8.45018 25.4519C8.25754 25.4192 8.09124 25.2985 8.00069 25.1253C7.89646 24.926 7.97019 24.5784 8.11768 23.883L9.29238 18.3446C9.33598 18.139 9.35778 18.0362 9.34743 17.9379C9.33827 17.8509 9.31093 17.7668 9.26718 17.6909C9.21774 17.6053 9.13969 17.5349 8.98361 17.3942L4.77783 13.604C4.24982 13.1281 3.98581 12.8903 3.95298 12.6678C3.92448 12.4745 3.98799 12.2789 4.12467 12.1393C4.28202 11.9786 4.63546 11.9413 5.34233 11.8667L10.9727 11.2724C11.1817 11.2504 11.2861 11.2394 11.3765 11.1991C11.4564 11.1635 11.528 11.1115 11.5866 11.0465C11.6528 10.973 11.6955 10.877 11.7811 10.6851L14.0861 5.51394Z" stroke="white" stroke-width="2" stroke-linecap="round" stroke-linejoin="round"/>
</svg>
