<svg width="36" height="36" viewBox="0 0 36 36" fill="none" xmlns="http://www.w3.org/2000/svg">
<path d="M25.5 5.01008C27.7803 6.32662 29.6739 8.2202 30.9904 10.5005C32.3069 12.7808 33 15.3675 33 18.0006C33 20.6336 32.3069 23.2203 30.9903 25.5006C29.6738 27.7809 27.7802 29.6744 25.4998 30.9909C23.2195 32.3074 20.6328 33.0005 17.9998 33.0005C15.3667 33.0004 12.78 32.3073 10.4998 30.9907C8.21948 29.6741 6.32593 27.7805 5.00945 25.5002C3.69297 23.2198 2.99993 20.6331 3 18.0001L3.0075 17.5141C3.0915 14.9236 3.84532 12.399 5.19546 10.1866C6.5456 7.97412 8.44598 6.14926 10.7113 4.88991C12.9767 3.63055 15.5297 2.97968 18.1215 3.00074C20.7133 3.0218 23.2554 3.71408 25.5 5.01008ZM25.371 12.6091C25.929 11.3536 24.6465 10.0711 23.391 10.6291L9.891 16.6291L9.729 16.7116C8.604 17.3716 8.8125 19.1251 10.1355 19.4566L15.2625 20.7361L16.545 25.8646C16.89 27.2476 18.792 27.4126 19.371 26.1091L25.371 12.6091Z" fill="#E9E5E2"/>
</svg>
