<svg width="36" height="36" viewBox="0 0 36 36" fill="none" xmlns="http://www.w3.org/2000/svg">
<path d="M18.009 6.44239C14.004 6.44239 10.002 7.61839 6.5415 9.97188H0L2.9445 13.1744C1.60291 14.3967 0.662426 15.9962 0.246601 17.7629C-0.169225 19.5295 -0.0409417 21.3806 0.614596 23.073C1.27013 24.7654 2.42227 26.2199 3.91964 27.2455C5.41701 28.2711 7.18958 28.8197 9.0045 28.8194C11.2721 28.8208 13.4561 27.9632 15.117 26.4194L18 29.5574L20.883 26.4224C22.5424 27.9654 24.7251 28.8219 26.991 28.8194C29.3774 28.8194 31.6662 27.8716 33.3539 26.1844C35.0416 24.4972 35.9902 22.2088 35.991 19.8224C35.9926 18.5708 35.7322 17.3327 35.2267 16.1878C34.7211 15.0428 33.9815 14.0164 33.0555 13.1744L36 9.97188H29.475C26.0944 7.67021 22.0988 6.44028 18.009 6.44239ZM18 9.38239C20.2965 9.38239 22.5945 9.83689 24.756 10.7369C20.9145 12.2069 18 15.6449 18 19.6499C18 15.6434 15.087 12.2069 11.244 10.7369C13.3845 9.8439 15.6807 9.38254 18 9.38239ZM9.003 13.7354C9.80255 13.7354 10.5943 13.8929 11.333 14.1988C12.0717 14.5048 12.7429 14.9533 13.3082 15.5187C13.8736 16.084 14.3221 16.7552 14.628 17.4939C14.934 18.2326 15.0915 19.0243 15.0915 19.8239C15.0915 20.6234 14.934 21.4152 14.628 22.1539C14.3221 22.8925 13.8736 23.5637 13.3082 24.1291C12.7429 24.6945 12.0717 25.1429 11.333 25.4489C10.5943 25.7549 9.80255 25.9124 9.003 25.9124C7.38823 25.9124 5.8396 25.2709 4.69778 24.1291C3.55597 22.9873 2.9145 21.4387 2.9145 19.8239C2.9145 18.2091 3.55597 16.6605 4.69778 15.5187C5.8396 14.3769 7.38823 13.7354 9.003 13.7354ZM26.991 13.7384C27.7903 13.7381 28.5817 13.8952 29.3203 14.2008C30.0588 14.5064 30.7299 14.9545 31.2953 15.5194C31.8607 16.0844 32.3092 16.7551 32.6153 17.4934C32.9215 18.2318 33.0792 19.0231 33.0795 19.8224C33.0798 20.6216 32.9227 21.4131 32.6171 22.1517C32.3115 22.8902 31.8634 23.5613 31.2985 24.1267C30.7335 24.692 30.0627 25.1406 29.3244 25.4467C28.5861 25.7529 27.7948 25.9106 26.9955 25.9109C25.3813 25.9115 23.833 25.2708 22.6912 24.1299C21.5494 22.9889 20.9076 21.4411 20.907 19.8269C20.9064 18.2127 21.5471 16.6644 22.688 15.5226C23.829 14.3808 25.3768 13.739 26.991 13.7384ZM9.003 16.6334C8.15643 16.6334 7.34453 16.9697 6.74592 17.5683C6.1473 18.1669 5.811 18.9788 5.811 19.8254C5.811 20.672 6.1473 21.4839 6.74592 22.0825C7.34453 22.6811 8.15643 23.0174 9.003 23.0174C9.84957 23.0174 10.6615 22.6811 11.2601 22.0825C11.8587 21.4839 12.195 20.672 12.195 19.8254C12.195 18.9788 11.8587 18.1669 11.2601 17.5683C10.6615 16.9697 9.84957 16.6334 9.003 16.6334ZM26.991 16.6334C26.1444 16.6334 25.3325 16.9697 24.7339 17.5683C24.1353 18.1669 23.799 18.9788 23.799 19.8254C23.799 20.672 24.1353 21.4839 24.7339 22.0825C25.3325 22.6811 26.1444 23.0174 26.991 23.0174C27.8376 23.0174 28.6495 22.6811 29.2481 22.0825C29.8467 21.4839 30.183 20.672 30.183 19.8254C30.183 18.9788 29.8467 18.1669 29.2481 17.5683C28.6495 16.9697 27.8376 16.6334 26.991 16.6334Z" fill="#E9E5E2"/>
</svg>
